<svg width="70" height="70" viewBox="0 0 70 70" fill="none" xmlns="http://www.w3.org/2000/svg">
<path d="M43.7168 40.2471C44.5772 39.3868 45.9087 39.2854 46.8809 39.9414C46.2249 38.9692 46.3262 37.6387 47.1865 36.7783L48.9209 35.0439V35.043L49.3232 34.6602C49.7339 34.2883 50.1697 33.9493 50.626 33.6445L50.8457 33.5137C51.4948 33.1693 52.2406 33.14 52.8936 33.3848C53.2155 32.6772 53.86 32.129 54.6807 31.9658L55.2217 31.8711C55.7659 31.7902 56.3184 31.749 56.875 31.749C57.4316 31.749 57.9841 31.7902 58.5283 31.8711L59.0693 31.9658C59.8899 32.129 60.5335 32.6773 60.8555 33.3848C61.5086 33.1396 62.2549 33.1692 62.9043 33.5137L63.124 33.6445C63.5803 33.9493 64.0161 34.2883 64.4268 34.6602L64.8291 35.043V35.0439L66.5635 36.7783C67.424 37.6388 67.5245 38.9691 66.8682 39.9414C67.066 39.8078 67.2794 39.7075 67.5 39.6367V39.375C67.5 37.9943 68.6193 36.875 70 36.875V33.125C68.6193 33.125 67.5 32.0057 67.5 30.625V21.875C67.5 20.4943 68.6193 19.375 70 19.375V15.625C68.6193 15.625 67.5 14.5057 67.5 13.125V8.75C67.5 8.33741 67.4592 7.9288 67.3799 7.53027L67.3428 7.27734C67.3057 6.88914 67.3631 6.51023 67.4941 6.16309C67.083 5.97713 66.7154 5.68017 66.4463 5.27734C66.2206 4.93963 65.9606 4.62268 65.6689 4.33105L65.4463 4.11816C65.2181 3.9114 64.9761 3.72305 64.7227 3.55371C64.3194 3.2843 64.0219 2.91651 63.8359 2.50488C63.4138 2.6641 62.9448 2.71453 62.4697 2.62012C62.0712 2.54084 61.6626 2.5 61.25 2.5H56.875C55.5807 2.5 54.5158 1.51639 54.3877 0.255859L54.375 0H50.625L50.6123 0.255859C50.4842 1.51639 49.4193 2.5 48.125 2.5H39.375C38.0807 2.5 37.0158 1.51639 36.8877 0.255859L36.875 0H33.125L33.1123 0.255859C32.9842 1.51639 31.9193 2.5 30.625 2.5H21.875C20.5807 2.5 19.5158 1.51639 19.3877 0.255859L19.375 0H15.625L15.6123 0.255859C15.4842 1.51639 14.4193 2.5 13.125 2.5H8.75L8.44141 2.50781C8.13389 2.523 7.82915 2.56066 7.53027 2.62012L7.27734 2.65723C6.88902 2.69427 6.51032 2.636 6.16309 2.50488C5.97716 2.91636 5.68044 3.28438 5.27734 3.55371L5.02832 3.72852C4.78271 3.91056 4.54996 4.11215 4.33105 4.33105L4.11816 4.55371C3.9114 4.78191 3.72305 5.02394 3.55371 5.27734L3.40039 5.4834C3.15205 5.78404 2.843 6.01031 2.50488 6.16309C2.66436 6.58542 2.7146 7.0549 2.62012 7.53027L2.56738 7.83105C2.52245 8.13339 2.5 8.44049 2.5 8.75V13.125L2.4873 13.3809C2.35918 14.6414 1.29434 15.625 0 15.625V19.375C1.38071 19.375 2.5 20.4943 2.5 21.875V30.625L2.4873 30.8809C2.35918 32.1414 1.29434 33.125 0 33.125V36.875C1.38071 36.875 2.5 37.9943 2.5 39.375V46.4639L3.24805 45.7158M43.7168 40.2471L44.7197 41.25H44.7188L43.7168 40.2471ZM43.7168 40.2471L41.9824 41.9824L39.2197 39.2197C40.196 38.2434 40.196 36.6609 39.2197 35.6846L34.2041 30.6689V30.668L33.8018 30.2852C33.3911 29.9133 32.9553 29.5743 32.499 29.2695L32.2793 29.1387C31.6299 28.7942 30.8836 28.7646 30.2305 29.0098C29.9085 28.3023 29.2649 27.754 28.4443 27.5908L27.9033 27.4961C27.3591 27.4152 26.8066 27.374 26.25 27.374C25.6934 27.374 25.1409 27.4152 24.5967 27.4961L24.0557 27.5908C23.235 27.754 22.5905 28.3022 22.2686 29.0098C21.6156 28.765 20.8698 28.7943 20.2207 29.1387L20.001 29.2695C19.5447 29.5743 19.1089 29.9133 18.6982 30.2852L18.2959 30.668V30.6689L13.2803 35.6846C12.304 36.6609 12.304 38.2434 13.2803 39.2197L6.78418 45.7158C5.80793 44.7396 4.22437 44.7397 3.24805 45.7158M3.24805 45.7158L5.01562 47.4834V47.4844L3.24805 45.7158ZM60.9375 43.75C60.9375 45.1307 62.0568 46.25 63.4375 46.25H67.5V48.125C67.5 49.5057 68.6193 50.625 70 50.625V54.375C68.6193 54.375 67.5 55.4943 67.5 56.875V61.25C67.5 61.6626 67.4592 62.0712 67.3799 62.4697C67.2855 62.9447 67.335 63.4139 67.4941 63.8359C67.1562 63.9887 66.8478 64.2161 66.5996 64.5166L66.4463 64.7227C66.2769 64.9761 66.0886 65.2181 65.8818 65.4463L65.6689 65.6689C65.45 65.8878 65.2173 66.0894 64.9717 66.2715L64.7227 66.4463C64.3197 66.7155 64.0219 67.0828 63.8359 67.4941C63.4139 67.335 62.9447 67.2855 62.4697 67.3799C62.0712 67.4592 61.6626 67.5 61.25 67.5H56.875C55.4943 67.5 54.375 68.6193 54.375 70H50.625C50.625 68.6193 49.5057 67.5 48.125 67.5H39.375C37.9943 67.5 36.875 68.6193 36.875 70H33.125C33.125 68.6193 32.0057 67.5 30.625 67.5H21.875C20.4943 67.5 19.375 68.6193 19.375 70H15.625C15.625 68.6193 14.5057 67.5 13.125 67.5H8.75C8.33741 67.5 7.9288 67.4592 7.53027 67.3799L7.27734 67.3428C6.88914 67.3057 6.51023 67.3631 6.16309 67.4941C5.97713 67.083 5.68017 66.7154 5.27734 66.4463L5.02832 66.2715C4.78271 66.0894 4.54996 65.8878 4.33105 65.6689L4.11816 65.4463C3.9114 65.2181 3.72305 64.9761 3.55371 64.7227L3.40039 64.5166C3.15196 64.2159 2.84314 63.9887 2.50488 63.8359C2.6641 63.4138 2.71453 62.9448 2.62012 62.4697L2.56738 62.1689C2.53743 61.9674 2.51794 61.7637 2.50781 61.5586L2.5 61.25V56.875C2.5 56.1272 2.16981 55.4581 1.64941 55H4.375C5.66934 55 6.73417 54.0164 6.8623 52.7559L6.875 52.5H10.625C10.625 53.8807 11.7443 55 13.125 55H21.875C23.1693 55 24.2342 54.0164 24.3623 52.7559L24.375 52.5H28.125C28.125 53.8807 29.2443 55 30.625 55H39.375C40.6693 55 41.7342 54.0164 41.8623 52.7559L41.875 52.5H45.625C45.625 53.8807 46.7443 55 48.125 55H52.5C53.511 55 54.4225 54.391 54.8096 53.457C55.1965 52.5228 54.9826 51.4474 54.2676 50.7324L49.7861 46.25H50.3125C51.6068 46.25 52.6717 45.2664 52.7998 44.0059L52.8125 43.75H60.9375ZM43.75 15C42.3693 15 41.25 16.1193 41.25 17.5C41.25 18.8807 42.3693 20 43.75 20H43.7607C43.7643 20 43.768 19.999 43.7715 19.999C43.7753 19.999 43.7794 20 43.7832 20H43.7939C45.1746 19.9999 46.2939 18.8806 46.2939 17.5C46.2939 16.1194 45.1746 15.0001 43.7939 15H43.75Z" stroke="#B5B5B5" stroke-width="5" stroke-linecap="round" stroke-linejoin="round" stroke-dasharray="10 10"/>
</svg>
