<svg width="38" height="41" viewBox="0 0 38 41" fill="none" xmlns="http://www.w3.org/2000/svg">
<path d="M7 35V15.1053C7 14.8121 7.11493 14.531 7.31952 14.3237C7.52411 14.1164 7.80158 14 8.09091 14H15.3591C15.595 14.001 15.8243 14.0784 16.0136 14.2211L19.8045 17.0947C19.9938 17.2373 20.2232 17.3148 20.4591 17.3158H29.9091C30.1984 17.3158 30.4759 17.4322 30.6805 17.6395C30.8851 17.8468 31 18.1279 31 18.4211V21.7368" fill="#B7B74A"/>
<path d="M7 35V15.1053C7 14.8121 7.11493 14.531 7.31952 14.3237C7.52411 14.1164 7.80158 14 8.09091 14H15.3591C15.595 14.001 15.8243 14.0784 16.0136 14.2211L19.8045 17.0947C19.9938 17.2373 20.2232 17.3148 20.4591 17.3158H29.9091C30.1984 17.3158 30.4759 17.4322 30.6805 17.6395C30.8851 17.8468 31 18.1279 31 18.4211V21.7368" stroke="#B7B74A" stroke-width="1.5" stroke-linecap="round" stroke-linejoin="round"/>
<path d="M19 21.75V27.1875" stroke="#554126" stroke-width="1.5" stroke-linecap="square" stroke-linejoin="round"/>
<path d="M19 1.8125L11.5 13.5938H15.25L10 21.75H28L22.75 13.5938H26.5L19 1.8125Z" fill="#327A2B" stroke="#327A2B" stroke-width="1.5" stroke-linecap="round" stroke-linejoin="round"/>
<path d="M10 23V27" stroke="#674C2A" stroke-width="1.5" stroke-linecap="square" stroke-linejoin="round"/>
<path d="M10 6.5L3.75 16.25H6.875L2.5 23H17.5L13.125 16.25H16.25L10 6.5Z" fill="#3B9732" stroke="#3B9732" stroke-width="1.5" stroke-linecap="round" stroke-linejoin="round"/>
<path d="M25 23V27" stroke="#71542E" stroke-width="1.5" stroke-linecap="square" stroke-linejoin="round"/>
<path d="M25 6.5L18.75 16.25H21.875L17.5 23H32.5L28.125 16.25H31.25L25 6.5Z" fill="#46BC3B" stroke="#46BC3B" stroke-width="1.5" stroke-linecap="round" stroke-linejoin="round"/>
<path d="M7 35L11.0995 24.8438C11.1795 24.643 11.3189 24.4709 11.4993 24.35C11.6798 24.2292 11.893 24.1653 12.1108 24.1667H18.6974C18.9104 24.1644 19.1186 24.1035 19.2986 23.9906L22.0317 22.176C22.2117 22.0632 22.4199 22.0023 22.6329 22H33.9067C34.0796 22 34.25 22.0406 34.4039 22.1185C34.5579 22.1964 34.691 22.3094 34.7924 22.4481C34.8937 22.5869 34.9604 22.7475 34.987 22.9168C35.0136 23.086 34.9993 23.2592 34.9452 23.4219L31.0507 35H7Z" fill="#D7D759" stroke="#D7D759" stroke-width="1.5" stroke-linecap="round" stroke-linejoin="round"/>
</svg>
